<svg width="200" height="51" viewBox="0 0 200 51" fill="none" xmlns="http://www.w3.org/2000/svg">
<rect y="1" width="200" height="50" fill="white"/>
<circle cx="20" cy="21" r="20" fill="#EDEEFC"/>
<g clip-path="url(#clip0_919_417)">
<path d="M20 31C26.0748 31 31 26.0748 31 20C31 13.9252 26.0748 9 20 9C13.9252 9 9 13.9252 9 20C9 26.0748 13.9252 31 20 31ZM20 11.0625C24.9362 11.0625 28.9375 15.0638 28.9375 20C28.9375 24.9362 24.9362 28.9375 20 28.9375C15.0638 28.9375 11.0625 24.9362 11.0625 20C11.0625 15.0638 15.0638 11.0625 20 11.0625ZM20 21.8645C22.4915 21.8645 24.8606 21.2031 26.875 20.0399C26.5615 23.8734 23.5846 26.875 20 26.875C16.4154 26.875 13.4385 23.8693 13.125 20.0371C15.1394 21.199 17.5085 21.8645 20 21.8645V21.8645ZM14.5 16.5625C14.5 15.424 15.116 14.5 15.875 14.5C16.634 14.5 17.25 15.424 17.25 16.5625C17.25 17.701 16.634 18.625 15.875 18.625C15.116 18.625 14.5 17.701 14.5 16.5625ZM22.75 16.5625C22.75 15.424 23.366 14.5 24.125 14.5C24.884 14.5 25.5 15.424 25.5 16.5625C25.5 17.701 24.884 18.625 24.125 18.625C23.366 18.625 22.75 17.701 22.75 16.5625Z" fill="#4B57E3"/>
</g>
<circle cx="70" cy="21" r="20" fill="#FCF0F0"/>
<g clip-path="url(#clip1_919_417)">
<path d="M70 31C76.0748 31 81 26.0748 81 20C81 13.9252 76.0748 9 70 9C63.9252 9 59 13.9252 59 20C59 26.0748 63.9252 31 70 31ZM70 11.0625C74.9362 11.0625 78.9375 15.0638 78.9375 20C78.9375 24.9362 74.9362 28.9375 70 28.9375C65.0638 28.9375 61.0625 24.9362 61.0625 20C61.0625 15.0638 65.0638 11.0625 70 11.0625ZM70 21.8645C72.4915 21.8645 74.8606 21.2031 76.875 20.0399C76.5615 23.8734 73.5846 26.875 70 26.875C66.4154 26.875 63.4385 23.8693 63.125 20.0371C65.1394 21.199 67.5085 21.8645 70 21.8645V21.8645ZM64.5 16.5625C64.5 15.424 65.116 14.5 65.875 14.5C66.634 14.5 67.25 15.424 67.25 16.5625C67.25 17.701 66.634 18.625 65.875 18.625C65.116 18.625 64.5 17.701 64.5 16.5625ZM72.75 16.5625C72.75 15.424 73.366 14.5 74.125 14.5C74.884 14.5 75.5 15.424 75.5 16.5625C75.5 17.701 74.884 18.625 74.125 18.625C73.366 18.625 72.75 17.701 72.75 16.5625Z" fill="#BA6B69"/>
</g>
<circle cx="120" cy="20" r="20" fill="#E4FEC9"/>
<g clip-path="url(#clip2_919_417)">
<path d="M120 30C126.075 30 131 25.0748 131 19C131 12.9252 126.075 8 120 8C113.925 8 109 12.9252 109 19C109 25.0748 113.925 30 120 30ZM120 10.0625C124.936 10.0625 128.938 14.0638 128.938 19C128.938 23.9362 124.936 27.9375 120 27.9375C115.064 27.9375 111.062 23.9362 111.062 19C111.062 14.0638 115.064 10.0625 120 10.0625ZM120 20.8645C122.492 20.8645 124.861 20.2031 126.875 19.0399C126.561 22.8734 123.585 25.875 120 25.875C116.415 25.875 113.439 22.8693 113.125 19.0371C115.139 20.199 117.508 20.8645 120 20.8645V20.8645ZM114.5 15.5625C114.5 14.424 115.116 13.5 115.875 13.5C116.634 13.5 117.25 14.424 117.25 15.5625C117.25 16.701 116.634 17.625 115.875 17.625C115.116 17.625 114.5 16.701 114.5 15.5625ZM122.75 15.5625C122.75 14.424 123.366 13.5 124.125 13.5C124.884 13.5 125.5 14.424 125.5 15.5625C125.5 16.701 124.884 17.625 124.125 17.625C123.366 17.625 122.75 16.701 122.75 15.5625Z" fill="#7AAD49"/>
</g>
<defs>
<clipPath id="clip0_919_417">
<rect width="22" height="22" fill="white" transform="translate(9 9)"/>
</clipPath>
<clipPath id="clip1_919_417">
<rect width="22" height="22" fill="white" transform="translate(59 9)"/>
</clipPath>
<clipPath id="clip2_919_417">
<rect width="22" height="22" fill="white" transform="translate(109 8)"/>
</clipPath>
</defs>
</svg>
