<svg width="508" height="508" viewBox="0 0 508 508" fill="none" xmlns="http://www.w3.org/2000/svg">
<g filter="url(#filter0_d_1325_900)">
<rect width="500" height="500" transform="translate(4)" fill="white"/>
<path d="M24.1271 40.0781L28.0825 38.76L28.7856 39.0825C30.3875 39.9031 32.1259 40.3134 34.0009 40.3134C37.1846 40.2159 39.8359 39.1759 41.9546 37.1934C44.0734 35.2109 45.1721 32.8134 45.2509 30.0009C45.1728 27.1884 44.074 24.7909 41.9546 22.8084C39.8353 20.8259 37.184 19.7859 34.0009 19.6884C30.8171 19.7859 28.1659 20.8259 26.0471 22.8084C23.9284 24.7909 22.8296 27.1884 22.7509 30.0009C22.7509 31.0165 22.9268 32.0225 23.2787 33.0187C23.6306 34.015 24.1481 34.9525 24.8312 35.8312L25.4762 36.6806L24.1271 40.0781ZM22.779 42.4809C22.4078 42.5984 22.0903 42.5153 21.8265 42.2315C21.5628 41.9478 21.4993 41.6206 21.6362 41.25L23.3359 36.9721C22.5546 35.9371 21.949 34.8287 21.519 33.6468C21.089 32.465 20.874 31.249 20.874 29.999C20.9521 26.7765 22.2021 23.969 24.624 21.5765C27.0459 19.184 30.1709 17.929 33.999 17.8115C37.8271 17.929 40.9521 19.184 43.374 21.5765C45.7959 23.969 47.0459 26.7765 47.124 29.999C47.0459 33.2215 45.7959 36.029 43.374 38.4215C40.9521 40.814 37.8271 42.069 33.999 42.1865C31.8703 42.1865 29.8487 41.7178 27.9343 40.7803L22.779 42.4809ZM34 31.4943C33.7262 31.4943 33.4771 31.4309 33.2528 31.304C33.0284 31.1771 32.8478 30.9915 32.7109 30.7471C32.574 30.5028 32.5056 30.2537 32.5056 30C32.5056 29.7462 32.574 29.4971 32.7109 29.2528C32.8478 29.0084 33.0284 28.8228 33.2528 28.6959C33.4771 28.569 33.7262 28.5056 34 28.5056C34.43 28.5056 34.7865 28.6471 35.0696 28.9303C35.3528 29.2134 35.4943 29.57 35.4943 30C35.4943 30.43 35.3528 30.7865 35.0696 31.0696C34.7865 31.3528 34.43 31.4943 34 31.4943V31.4943ZM39.625 31.4943C39.3512 31.4943 39.1021 31.4309 38.8778 31.304C38.6534 31.1771 38.4728 30.9915 38.3359 30.7471C38.199 30.5028 38.1306 30.2537 38.1306 30C38.1306 29.7462 38.199 29.4971 38.3359 29.2528C38.4728 29.0084 38.6534 28.8228 38.8778 28.6959C39.1021 28.569 39.3512 28.5056 39.625 28.5056C40.055 28.5056 40.4115 28.6471 40.6946 28.9303C40.9778 29.2134 41.1193 29.57 41.1193 30C41.1193 30.43 40.9778 30.7865 40.6946 31.0696C40.4115 31.3528 40.055 31.4943 39.625 31.4943V31.4943ZM28.375 31.4943C28.1012 31.4943 27.8521 31.4309 27.6278 31.304C27.4034 31.1771 27.2228 30.9915 27.0859 30.7471C26.949 30.5028 26.8806 30.2537 26.8806 30C26.8806 29.7462 26.949 29.4971 27.0859 29.2528C27.2228 29.0084 27.4034 28.8228 27.6278 28.6959C27.8521 28.569 28.1012 28.5056 28.375 28.5056C28.805 28.5056 29.1615 28.6471 29.4446 28.9303C29.7278 29.2134 29.8693 29.57 29.8693 30C29.8693 30.43 29.7278 30.7865 29.4446 31.0696C29.1615 31.3528 28.805 31.4943 28.375 31.4943V31.4943Z" fill="#08080A" fill-opacity="0.96"/>
<circle cx="34" cy="30" r="30" fill="#48EC9D" fill-opacity="0.2"/>
<path d="M114 30C115.602 29.9606 116.93 29.4138 117.984 28.3594C119.039 27.305 119.586 25.9769 119.625 24.375C119.586 22.7731 119.039 21.445 117.984 20.3906C116.93 19.3362 115.602 18.7894 114 18.75C112.398 18.7894 111.07 19.3362 110.016 20.3906C108.961 21.445 108.414 22.7731 108.375 24.375C108.414 25.9769 108.961 27.305 110.016 28.3594C111.07 29.4138 112.398 29.9606 114 30ZM114 31.875C111.871 31.8162 110.104 31.0838 108.697 29.6775C107.291 28.2713 106.559 26.5037 106.5 24.375C106.559 22.2463 107.291 20.4787 108.697 19.0725C110.104 17.6662 111.871 16.9338 114 16.875C116.129 16.9338 117.896 17.6662 119.303 19.0725C120.709 20.4787 121.441 22.2463 121.5 24.375C121.441 26.5037 120.709 28.2713 119.303 29.6775C117.896 31.0838 116.129 31.8162 114 31.875ZM114 30C114.274 30 114.498 30.0878 114.674 30.2634C114.85 30.4391 114.938 30.6638 114.938 30.9375V38.4375C114.938 38.7112 114.85 38.9359 114.674 39.1116C114.498 39.2872 114.274 39.375 114 39.375C113.726 39.375 113.502 39.2872 113.326 39.1116C113.15 38.9359 113.062 38.7112 113.062 38.4375V30.9375C113.062 30.6638 113.15 30.4391 113.326 30.2634C113.502 30.0878 113.726 30 114 30V30ZM110.25 34.0134V35.9175C108.551 36.2106 107.193 36.5962 106.178 37.0744C105.162 37.5525 104.644 38.0066 104.625 38.4366C104.684 39.0422 105.587 39.6525 107.335 40.2675C109.083 40.8825 111.305 41.2097 114 41.2491C116.696 41.2097 118.917 40.8825 120.665 40.2675C122.412 39.6525 123.316 39.0422 123.375 38.4366C123.356 38.0066 122.838 37.5525 121.822 37.0744C120.807 36.5962 119.449 36.2106 117.75 35.9175V34.0134C119.977 34.3453 121.774 34.9069 123.141 35.6981C124.507 36.4894 125.211 37.4025 125.25 38.4375C125.172 39.7656 124.073 40.8691 121.954 41.7478C119.834 42.6266 117.183 43.0856 114 43.125C110.816 43.0856 108.165 42.6266 106.046 41.7478C103.927 40.8691 102.829 39.7656 102.75 38.4375C102.789 37.4025 103.493 36.4894 104.859 35.6981C106.226 34.9069 108.023 34.3453 110.25 34.0134Z" fill="#08080A" fill-opacity="0.96"/>
<circle cx="114" cy="30" r="30" fill="#8DFF33" fill-opacity="0.2"/>
<path d="M182.75 26.25V39.375H205.25V26.25H182.75ZM181.812 24.375H206.188C206.461 24.375 206.686 24.4628 206.862 24.6384C207.037 24.8141 207.125 25.0388 207.125 25.3125V40.3125C207.125 40.5862 207.037 40.8109 206.862 40.9866C206.686 41.1622 206.461 41.25 206.188 41.25H181.812C181.539 41.25 181.314 41.1622 181.138 40.9866C180.963 40.8109 180.875 40.5862 180.875 40.3125V25.3125C180.875 25.0388 180.963 24.8141 181.138 24.6384C181.314 24.4628 181.539 24.375 181.812 24.375ZM183.688 20.625H204.312V22.5H183.688V20.625ZM186.5 16.875H201.5V18.75H186.5V16.875Z" fill="#08080A" fill-opacity="0.96"/>
<circle cx="194" cy="30" r="30" fill="#F76D6D" fill-opacity="0.2"/>
<path d="M269.518 37.5H263.688C263.414 37.5 263.189 37.4122 263.013 37.2366C262.838 37.0609 262.75 36.8363 262.75 36.5625V20.625H260.875C260.601 20.625 260.377 20.5372 260.201 20.3616C260.025 20.1859 259.938 19.9613 259.938 19.6875C259.938 19.4137 260.025 19.1891 260.201 19.0134C260.377 18.8378 260.601 18.75 260.875 18.75H287.125C287.399 18.75 287.623 18.8378 287.799 19.0134C287.975 19.1891 288.062 19.4137 288.062 19.6875C288.062 19.9613 287.975 20.1859 287.799 20.3616C287.623 20.5372 287.399 20.625 287.125 20.625H285.25V36.5625C285.25 36.8363 285.162 37.0609 284.987 37.2366C284.811 37.4122 284.586 37.5 284.312 37.5H278.482L281.734 43.125H279.566L276.314 37.5H271.684L268.432 43.125H266.264L269.518 37.5ZM283.375 20.625H264.625V35.625H283.375V20.625ZM269.049 30.6741C268.853 30.8497 268.629 30.9375 268.375 30.9375C268.121 30.9375 267.902 30.8447 267.716 30.6591C267.53 30.4734 267.438 30.2537 267.438 30C267.438 29.7463 267.525 29.5216 267.701 29.3259L272.037 25.0191L275.699 27.7734L278.892 23.7891C279.126 23.4959 279.424 23.3738 279.785 23.4225C280.147 23.4713 280.391 23.6666 280.517 24.0084C280.644 24.3503 280.591 24.6678 280.356 24.9609L276.049 30.3516L272.211 27.48L269.049 30.6741Z" fill="#08080A" fill-opacity="0.96"/>
<circle cx="274" cy="30" r="30" fill="#4857EC" fill-opacity="0.2"/>
<circle cx="31" cy="107" r="27" fill="#4857EC" fill-opacity="0.1"/>
<path d="M35.08 111.423C33.8822 112.532 32.258 113.155 30.5643 113.155C28.8707 113.155 27.2464 112.532 26.0486 111.423M25.774 104.285H25.79M35.3547 104.285H35.3706M44.9353 107.242C44.9353 108.989 44.5636 110.72 43.8414 112.334C43.1192 113.949 42.0606 115.416 40.7261 116.651C39.3917 117.887 37.8074 118.867 36.0639 119.536C34.3203 120.204 32.4515 120.549 30.5643 120.549C28.6771 120.549 26.8084 120.204 25.0648 119.536C23.3212 118.867 21.737 117.887 20.4025 116.651C19.0681 115.416 18.0095 113.949 17.2873 112.334C16.5651 110.72 16.1934 108.989 16.1934 107.242C16.1934 103.713 17.7074 100.328 20.4025 97.8328C23.0976 95.3374 26.7529 93.9354 30.5643 93.9354C34.3757 93.9354 38.0311 95.3374 40.7261 97.8328C43.4212 100.328 44.9353 103.713 44.9353 107.242Z" stroke="#4857EC" stroke-width="3" stroke-linecap="round" stroke-linejoin="round"/>
<circle cx="111" cy="107" r="27" fill="#FFD6D6" fill-opacity="0.5"/>
<path d="M115.08 111.423C113.882 112.532 112.258 113.155 110.564 113.155C108.871 113.155 107.246 112.532 106.049 111.423M105.774 104.285H105.79M115.355 104.285H115.371M124.935 107.242C124.935 108.989 124.564 110.72 123.841 112.334C123.119 113.949 122.061 115.416 120.726 116.651C119.392 117.887 117.807 118.867 116.064 119.536C114.32 120.204 112.452 120.549 110.564 120.549C108.677 120.549 106.808 120.204 105.065 119.536C103.321 118.867 101.737 117.887 100.403 116.651C99.0681 115.416 98.0095 113.949 97.2873 112.334C96.5651 110.72 96.1934 108.989 96.1934 107.242C96.1934 103.713 97.7074 100.328 100.403 97.8328C103.098 95.3374 106.753 93.9354 110.564 93.9354C114.376 93.9354 118.031 95.3374 120.726 97.8328C123.421 100.328 124.935 103.713 124.935 107.242Z" stroke="#C66464" stroke-width="3" stroke-linecap="round" stroke-linejoin="round"/>
<circle cx="191" cy="107" r="27" fill="#BCFF87" fill-opacity="0.5"/>
<path d="M203.841 112.334C204.564 110.72 204.935 108.989 204.935 107.242C204.935 103.713 203.421 100.328 200.726 97.8328C198.031 95.3374 194.376 93.9354 190.564 93.9354C186.753 93.9354 183.098 95.3374 180.403 97.8328C177.707 100.328 176.193 103.713 176.193 107.242C176.193 108.989 176.565 110.72 177.287 112.334C178.009 113.949 179.068 115.416 180.403 116.651C181.737 117.887 183.321 118.867 185.065 119.536C186.808 120.204 188.677 120.549 190.564 120.549C192.452 120.549 194.32 120.204 196.064 119.536C197.807 118.867 199.392 117.887 200.726 116.651C202.061 115.416 203.119 113.949 203.841 112.334Z" fill="#E8FFD6"/>
<path d="M195.08 111.423C193.882 112.532 192.258 113.155 190.564 113.155C188.871 113.155 187.246 112.532 186.049 111.423M185.774 104.285H185.79M195.355 104.285H195.371M204.935 107.242C204.935 108.989 204.564 110.72 203.841 112.334C203.119 113.949 202.061 115.416 200.726 116.651C199.392 117.887 197.807 118.867 196.064 119.536C194.32 120.204 192.452 120.549 190.564 120.549C188.677 120.549 186.808 120.204 185.065 119.536C183.321 118.867 181.737 117.887 180.403 116.651C179.068 115.416 178.009 113.949 177.287 112.334C176.565 110.72 176.193 108.989 176.193 107.242C176.193 103.713 177.707 100.328 180.403 97.8328C183.098 95.3374 186.753 93.9354 190.564 93.9354C194.376 93.9354 198.031 95.3374 200.726 97.8328C203.421 100.328 204.935 103.713 204.935 107.242Z" stroke="#6AAF35" stroke-width="3" stroke-linecap="round" stroke-linejoin="round"/>
<path d="M161.641 160.537C161.39 159.821 160.296 159.821 160.044 160.537L158.768 164.172C158.713 164.328 158.606 164.464 158.463 164.561C158.319 164.657 158.146 164.709 157.969 164.709H153.842C153.029 164.709 152.689 165.673 153.348 166.117L156.687 168.363C156.831 168.459 156.938 168.595 156.992 168.752C157.047 168.908 157.047 169.076 156.992 169.232L155.717 172.867C155.465 173.584 156.351 174.18 157.009 173.737L160.349 171.491C160.492 171.394 160.665 171.342 160.842 171.342C161.02 171.342 161.193 171.394 161.336 171.491L164.676 173.737C165.334 174.18 166.22 173.584 165.968 172.867L164.693 169.232C164.638 169.076 164.638 168.908 164.693 168.752C164.747 168.595 164.854 168.459 164.998 168.363L168.337 166.117C168.995 165.673 168.657 164.709 167.843 164.709H163.715C163.538 164.709 163.365 164.657 163.222 164.56C163.079 164.464 162.972 164.328 162.917 164.172L161.641 160.537Z" fill="#F9C94E"/>
<path d="M192.641 160.537C192.39 159.821 191.296 159.821 191.044 160.537L189.768 164.172C189.713 164.328 189.606 164.464 189.463 164.561C189.319 164.657 189.146 164.709 188.969 164.709H184.842C184.029 164.709 183.689 165.673 184.348 166.117L187.687 168.363C187.831 168.459 187.938 168.595 187.992 168.752C188.047 168.908 188.047 169.076 187.992 169.232L186.717 172.867C186.465 173.584 187.351 174.18 188.009 173.737L191.349 171.491C191.492 171.394 191.665 171.342 191.842 171.342C192.02 171.342 192.193 171.394 192.336 171.491L195.676 173.737C196.334 174.18 197.22 173.584 196.968 172.867L195.693 169.232C195.638 169.076 195.638 168.908 195.693 168.752C195.747 168.595 195.854 168.459 195.998 168.363L199.337 166.117C199.995 165.673 199.657 164.709 198.843 164.709H194.715C194.538 164.709 194.365 164.657 194.222 164.56C194.079 164.464 193.972 164.328 193.917 164.172L192.641 160.537Z" stroke="#F9C94E" stroke-linecap="round" stroke-linejoin="round"/>
<path d="M24 170C24 164.477 19.5229 160 14 160C8.47715 160 4 164.477 4 170C4 174.991 7.65684 179.128 12.4375 179.879V172.891H9.89844V170H12.4375V167.797C12.4375 165.291 13.9305 163.906 16.2146 163.906C17.3084 163.906 18.4531 164.102 18.4531 164.102V166.563H17.1922C15.95 166.563 15.5625 167.333 15.5625 168.125V170H18.3359L17.8926 172.891H15.5625V179.879C20.3432 179.128 24 174.991 24 170Z" fill="black"/>
<path d="M45 161.801C47.6719 161.801 47.9883 161.812 49.0391 161.859C50.0156 161.902 50.543 162.066 50.8945 162.203C51.3594 162.383 51.6953 162.602 52.043 162.949C52.3945 163.301 52.6094 163.633 52.7891 164.098C52.9258 164.449 53.0898 164.98 53.1328 165.953C53.1797 167.008 53.1914 167.324 53.1914 169.992C53.1914 172.664 53.1797 172.98 53.1328 174.031C53.0898 175.008 52.9258 175.535 52.7891 175.887C52.6094 176.352 52.3906 176.688 52.043 177.035C51.6914 177.387 51.3594 177.602 50.8945 177.781C50.543 177.918 50.0117 178.082 49.0391 178.125C47.9844 178.172 47.668 178.184 45 178.184C42.3281 178.184 42.0117 178.172 40.9609 178.125C39.9844 178.082 39.457 177.918 39.1055 177.781C38.6406 177.602 38.3047 177.383 37.957 177.035C37.6055 176.684 37.3906 176.352 37.2109 175.887C37.0742 175.535 36.9102 175.004 36.8672 174.031C36.8203 172.977 36.8086 172.66 36.8086 169.992C36.8086 167.32 36.8203 167.004 36.8672 165.953C36.9102 164.977 37.0742 164.449 37.2109 164.098C37.3906 163.633 37.6094 163.297 37.957 162.949C38.3086 162.598 38.6406 162.383 39.1055 162.203C39.457 162.066 39.9883 161.902 40.9609 161.859C42.0117 161.812 42.3281 161.801 45 161.801ZM45 160C42.2852 160 41.9453 160.012 40.8789 160.059C39.8164 160.105 39.0859 160.277 38.4531 160.523C37.793 160.781 37.2344 161.121 36.6797 161.68C36.1211 162.234 35.7813 162.793 35.5234 163.449C35.2773 164.086 35.1055 164.812 35.0586 165.875C35.0117 166.945 35 167.285 35 170C35 172.715 35.0117 173.055 35.0586 174.121C35.1055 175.184 35.2773 175.914 35.5234 176.547C35.7813 177.207 36.1211 177.766 36.6797 178.32C37.2344 178.875 37.793 179.219 38.4492 179.473C39.0859 179.719 39.8125 179.891 40.875 179.938C41.9414 179.984 42.2813 179.996 44.9961 179.996C47.7109 179.996 48.0508 179.984 49.1172 179.938C50.1797 179.891 50.9102 179.719 51.543 179.473C52.1992 179.219 52.7578 178.875 53.3125 178.32C53.8672 177.766 54.2109 177.207 54.4648 176.551C54.7109 175.914 54.8828 175.188 54.9297 174.125C54.9766 173.059 54.9883 172.719 54.9883 170.004C54.9883 167.289 54.9766 166.949 54.9297 165.883C54.8828 164.82 54.7109 164.09 54.4648 163.457C54.2188 162.793 53.8789 162.234 53.3203 161.68C52.7656 161.125 52.207 160.781 51.5508 160.527C50.9141 160.281 50.1875 160.109 49.125 160.063C48.0547 160.012 47.7148 160 45 160Z" fill="black"/>
<path d="M45 164.863C42.1641 164.863 39.8633 167.164 39.8633 170C39.8633 172.836 42.1641 175.137 45 175.137C47.8359 175.137 50.1367 172.836 50.1367 170C50.1367 167.164 47.8359 164.863 45 164.863ZM45 173.332C43.1602 173.332 41.668 171.84 41.668 170C41.668 168.16 43.1602 166.668 45 166.668C46.8398 166.668 48.332 168.16 48.332 170C48.332 171.84 46.8398 173.332 45 173.332Z" fill="black"/>
<path d="M51.5391 164.66C51.5391 165.324 51 165.859 50.3398 165.859C49.6758 165.859 49.1406 165.32 49.1406 164.66C49.1406 163.996 49.6797 163.461 50.3398 163.461C51 163.461 51.5391 164 51.5391 164.66Z" fill="black"/>
<g clip-path="url(#clip0_1325_900)">
<path d="M83.6014 165.155C83.4883 164.729 83.2654 164.341 82.9551 164.028C82.6448 163.716 82.2579 163.491 81.8332 163.375C80.2695 162.955 74.0195 162.955 74.0195 162.955C74.0195 162.955 67.7695 162.955 66.2059 163.375C65.7811 163.491 65.3942 163.716 65.0839 164.028C64.7736 164.341 64.5508 164.729 64.4377 165.155C64.0195 166.725 64.0195 170 64.0195 170C64.0195 170 64.0195 173.275 64.4377 174.845C64.5508 175.271 64.7736 175.659 65.0839 175.972C65.3942 176.284 65.7811 176.509 66.2059 176.625C67.7695 177.045 74.0195 177.045 74.0195 177.045C74.0195 177.045 80.2695 177.045 81.8332 176.625C82.2579 176.509 82.6448 176.284 82.9551 175.972C83.2654 175.659 83.4883 175.271 83.6014 174.845C84.0195 173.275 84.0195 170 84.0195 170C84.0195 170 84.0195 166.725 83.6014 165.155Z" fill="black"/>
<path d="M71.9746 172.974V167.026L77.2019 170L71.9746 172.974Z" fill="#FEFEFE"/>
</g>
<g clip-path="url(#clip1_1325_900)">
<path fill-rule="evenodd" clip-rule="evenodd" d="M104 160.417C101.626 160.418 99.3303 161.259 97.5225 162.789C95.7148 164.319 94.5134 166.438 94.1331 168.768C93.7528 171.098 94.2184 173.487 95.4467 175.507C96.675 177.527 98.5858 179.046 100.838 179.794C101.334 179.886 101.521 179.578 101.521 179.317C101.521 179.055 101.512 178.296 101.508 177.466C98.7263 178.067 98.1385 176.292 98.1385 176.292C97.6847 175.139 97.029 174.837 97.029 174.837C96.1216 174.221 97.0969 174.232 97.0969 174.232C98.102 174.303 98.6303 175.258 98.6303 175.258C99.5211 176.778 100.97 176.338 101.54 176.081C101.629 175.438 101.889 175 102.176 174.751C99.9533 174.501 97.6185 173.648 97.6185 169.838C97.6047 168.85 97.9735 167.894 98.6485 167.169C98.5458 166.919 98.203 165.908 98.7462 164.534C98.7462 164.534 99.5857 164.268 101.497 165.554C103.136 165.108 104.865 165.108 106.504 165.554C108.413 164.268 109.251 164.534 109.251 164.534C109.796 165.904 109.453 166.915 109.351 167.169C110.028 167.894 110.397 168.852 110.382 169.841C110.382 173.659 108.042 174.501 105.817 174.746C106.175 175.056 106.494 175.66 106.494 176.588C106.494 177.919 106.483 178.989 106.483 179.317C106.483 179.582 106.663 179.891 107.17 179.794C109.422 179.046 111.333 177.526 112.561 175.506C113.789 173.486 114.255 171.097 113.874 168.767C113.493 166.436 112.291 164.317 110.483 162.787C108.675 161.257 106.378 160.417 104.004 160.417H104Z" fill="black"/>
<path d="M97.7873 174.693C97.7658 174.743 97.6863 174.757 97.6217 174.723C97.5571 174.688 97.5091 174.624 97.5323 174.573C97.5555 174.522 97.6333 174.509 97.6979 174.543C97.7625 174.578 97.8121 174.644 97.7873 174.693Z" fill="black"/>
<path d="M98.1924 175.143C98.1581 175.16 98.1188 175.165 98.0814 175.156C98.0439 175.148 98.0106 175.127 97.987 175.097C97.9225 175.028 97.9092 174.932 97.9589 174.889C98.0086 174.846 98.098 174.866 98.1626 174.935C98.2271 175.004 98.242 175.1 98.1924 175.143Z" fill="black"/>
<path d="M98.5867 175.714C98.5255 175.757 98.4211 175.714 98.3632 175.629C98.3471 175.613 98.3344 175.595 98.3257 175.574C98.317 175.554 98.3125 175.532 98.3125 175.51C98.3125 175.488 98.317 175.466 98.3257 175.446C98.3344 175.425 98.3471 175.407 98.3632 175.391C98.4244 175.35 98.5288 175.391 98.5867 175.475C98.6447 175.559 98.6463 175.671 98.5867 175.714V175.714Z" fill="black"/>
<path d="M99.1217 176.267C99.067 176.328 98.9561 176.312 98.865 176.23C98.7739 176.147 98.7524 176.035 98.8071 175.976C98.8617 175.917 98.9726 175.933 99.067 176.014C99.1614 176.094 99.1796 176.208 99.1217 176.267V176.267Z" fill="black"/>
<path d="M99.8715 176.59C99.8466 176.667 99.734 176.702 99.6214 176.669C99.5088 176.636 99.4343 176.544 99.4559 176.465C99.4774 176.386 99.5916 176.35 99.7059 176.386C99.8202 176.422 99.893 176.509 99.8715 176.59Z" fill="black"/>
<path d="M100.69 176.646C100.69 176.727 100.597 176.796 100.478 176.797C100.358 176.799 100.261 176.733 100.261 176.653C100.261 176.572 100.353 176.503 100.473 176.501C100.592 176.499 100.69 176.564 100.69 176.646Z" fill="black"/>
<path d="M101.452 176.519C101.467 176.6 101.384 176.684 101.265 176.704C101.145 176.723 101.041 176.676 101.026 176.597C101.011 176.518 101.097 176.432 101.213 176.411C101.329 176.389 101.437 176.439 101.452 176.519Z" fill="black"/>
</g>
<path d="M130.24 168.39C129.67 168.39 129.22 168.89 129.22 169.5C129.22 170.11 129.68 170.61 130.24 170.61C130.81 170.61 131.26 170.11 131.26 169.5C131.27 168.89 130.81 168.39 130.24 168.39ZM133.89 168.39C133.32 168.39 132.87 168.89 132.87 169.5C132.87 170.11 133.33 170.61 133.89 170.61C134.46 170.61 134.91 170.11 134.91 169.5C134.91 168.89 134.46 168.39 133.89 168.39Z" fill="black"/>
<path d="M138.75 160H125.35C124.22 160 123.3 160.92 123.3 162.06V175.58C123.3 176.72 124.22 177.64 125.35 177.64H136.69L136.16 175.79L137.44 176.98L138.65 178.1L140.8 180V162.06C140.8 160.92 139.88 160 138.75 160ZM134.89 173.06C134.89 173.06 134.53 172.63 134.23 172.25C135.54 171.88 136.04 171.06 136.04 171.06C135.63 171.33 135.24 171.52 134.89 171.65C134.39 171.86 133.91 172 133.44 172.08C132.48 172.26 131.6 172.21 130.85 172.07C130.28 171.96 129.79 171.8 129.38 171.64C129.15 171.55 128.9 171.44 128.65 171.3C128.62 171.28 128.59 171.27 128.56 171.25C128.54 171.24 128.53 171.23 128.52 171.22C128.34 171.12 128.24 171.05 128.24 171.05C128.24 171.05 128.72 171.85 129.99 172.23C129.69 172.61 129.32 173.06 129.32 173.06C127.11 172.99 126.27 171.54 126.27 171.54C126.27 168.32 127.71 165.71 127.71 165.71C129.15 164.63 130.52 164.66 130.52 164.66L130.62 164.78C128.82 165.3 127.99 166.09 127.99 166.09C127.99 166.09 128.21 165.97 128.58 165.8C129.65 165.33 130.5 165.2 130.85 165.17C130.91 165.16 130.96 165.15 131.02 165.15C131.63 165.07 132.32 165.05 133.04 165.13C133.99 165.24 135.01 165.52 136.05 166.09C136.05 166.09 135.26 165.34 133.56 164.82L133.7 164.66C133.7 164.66 135.07 164.63 136.51 165.71C136.51 165.71 137.95 168.32 137.95 171.54C137.95 171.54 137.1 172.99 134.89 173.06V173.06Z" fill="black"/>
</g>
<defs>
<filter id="filter0_d_1325_900" x="0" y="0" width="508" height="508" filterUnits="userSpaceOnUse" color-interpolation-filters="sRGB">
<feFlood flood-opacity="0" result="BackgroundImageFix"/>
<feColorMatrix in="SourceAlpha" type="matrix" values="0 0 0 0 0 0 0 0 0 0 0 0 0 0 0 0 0 0 127 0" result="hardAlpha"/>
<feOffset dy="4"/>
<feGaussianBlur stdDeviation="2"/>
<feComposite in2="hardAlpha" operator="out"/>
<feColorMatrix type="matrix" values="0 0 0 0 0 0 0 0 0 0 0 0 0 0 0 0 0 0 0.25 0"/>
<feBlend mode="normal" in2="BackgroundImageFix" result="effect1_dropShadow_1325_900"/>
<feBlend mode="normal" in="SourceGraphic" in2="effect1_dropShadow_1325_900" result="shape"/>
</filter>
<clipPath id="clip0_1325_900">
<rect width="20" height="20" fill="white" transform="translate(64 160)"/>
</clipPath>
<clipPath id="clip1_1325_900">
<rect width="20" height="20" fill="white" transform="translate(94 160)"/>
</clipPath>
</defs>
</svg>
