<svg width="24" height="24" viewBox="0 0 24 24" fill="none" xmlns="http://www.w3.org/2000/svg">
<g clip-path="url(#clip0_202_1988)">
<path d="M16.8646 19.4894C16.5766 19.4894 16.2886 19.3799 16.0696 19.1594C15.6301 18.7199 15.6301 18.0074 16.0696 17.5679C19.1401 14.4974 19.1401 9.5009 16.0696 6.4304C15.6301 5.9909 15.6301 5.2784 16.0696 4.8389C16.5091 4.3994 17.2216 4.3994 17.6611 4.8389C19.5736 6.7514 20.6266 9.2939 20.6266 11.9984C20.6266 14.7029 19.5736 17.2454 17.6611 19.1579C17.4421 19.3769 17.1541 19.4879 16.8661 19.4879L16.8646 19.4894ZM12.8671 17.3669C12.5791 17.3669 12.2911 17.2574 12.0721 17.0369C11.6326 16.5974 11.6326 15.8849 12.0721 15.4454C13.9726 13.5449 13.9726 10.4519 12.0721 8.5514C11.6326 8.1119 11.6326 7.3994 12.0721 6.9599C12.5116 6.5204 13.2241 6.5204 13.6636 6.9599C16.4416 9.7379 16.4416 14.2574 13.6636 17.0369C13.4446 17.2559 13.1566 17.3669 12.8686 17.3669H12.8671Z" fill="white"/>
<path d="M9.75004 22.4999C9.55503 22.4999 9.36304 22.4234 9.21904 22.2809L3.43804 16.4999H0.748535C0.334535 16.4999 -0.00146484 16.1639 -0.00146484 15.7499V8.24994C-0.00146484 7.83594 0.334535 7.49994 0.748535 7.49994H3.43804L9.21904 1.71894C9.43353 1.50444 9.75603 1.43994 10.0365 1.55694C10.317 1.67394 10.5 1.94694 10.5 2.24994V21.7499C10.5 22.0529 10.317 22.3274 10.0365 22.4429C9.94353 22.4819 9.84604 22.4999 9.75004 22.4999Z" fill="white"/>
</g>
<defs>
<clipPath id="clip0_202_1988">
<rect width="24" height="24" fill="white"/>
</clipPath>
</defs>
</svg>
