<svg width="24" height="24" viewBox="0 0 24 24" fill="none" xmlns="http://www.w3.org/2000/svg">
<g clip-path="url(#clip0_34_4475)">
<path d="M22.5 14.511V16.5H20.511L18 13.989L15.489 16.5H13.5V14.511L16.011 12L13.5 9.489V7.5H15.489L18 10.011L20.511 7.5H22.5V9.489L19.989 12L22.5 14.511Z" fill="white"/>
<path d="M9.75004 22.4999C9.55503 22.4999 9.36304 22.4234 9.21904 22.2809L3.43804 16.4999H0.748535C0.334535 16.4999 -0.00146484 16.1639 -0.00146484 15.7499V8.24994C-0.00146484 7.83594 0.334535 7.49994 0.748535 7.49994H3.43804L9.21904 1.71894C9.43353 1.50444 9.75603 1.43994 10.0365 1.55694C10.317 1.67394 10.5 1.94694 10.5 2.24994V21.7499C10.5 22.0529 10.317 22.3274 10.0365 22.4429C9.94353 22.4819 9.84604 22.4999 9.75004 22.4999Z" fill="white"/>
</g>
<defs>
<clipPath id="clip0_34_4475">
<rect width="24" height="24" fill="white"/>
</clipPath>
</defs>
</svg>
