<svg width="270" height="24" viewBox="0 0 270 24" fill="none" xmlns="http://www.w3.org/2000/svg">
<path fill-rule="evenodd" clip-rule="evenodd" d="M126 4H128V20H126V4ZM138 4H136V6H134V9H132V11H130V13H132V16H134V18H136V20H138V4Z" fill="white"/>
<path fill-rule="evenodd" clip-rule="evenodd" d="M168 20H166V4H168V20ZM156 20H158V18H160V15H162V13H164V11H162V8H160V6H158V4H156V20Z" fill="white"/>
<path fill-rule="evenodd" clip-rule="evenodd" d="M40 20H38V4H40V6H42V9H44V11H46V13H44V15H42V18H40V20Z" fill="white"/>
<path fill-rule="evenodd" clip-rule="evenodd" d="M245 5H247V7H245V5ZM249 9H247V7H249V9ZM251 11H249V9H251V11ZM253 11H251V13H249V15H247V17H245V19H247V17H249V15H251V13H253V15H255V17H257V19H259V17H257V15H255V13H253V11ZM255 9V11H253V9H255ZM257 7V9H255V7H257ZM257 7V5H259V7H257Z" fill="white"/>
<path fill-rule="evenodd" clip-rule="evenodd" d="M184 6H200V8H184V6ZM184 11.0001H200V13.0001H184V11.0001ZM200 16H184V18H200V16Z" fill="white"/>
<path fill-rule="evenodd" clip-rule="evenodd" d="M108 5H106V7H108V9H102V11H100V17H92V19H100V17H102V11H108V13H106V15H108V13H110V11H112V9H110V7H108V5ZM92 9H98V11H92V9ZM112 19V17H104V19H112Z" fill="white"/>
<path fill-rule="evenodd" clip-rule="evenodd" d="M226 2H224V4H226V6H214V8H212V13H214V8H226V10H224V12H226V10H228V8H230V6H228V4H226V2ZM216 20H218V22H220V20H218V18H230V16H232V11H230V16H218V14H220V12H218V14H216V16H214V18H216V20Z" fill="white"/>
<path fill-rule="evenodd" clip-rule="evenodd" d="M10 4H5V20H10V4ZM19 4H14V20H19V4Z" fill="white"/>
<path fill-rule="evenodd" clip-rule="evenodd" d="M76 4H74V6H76V8H66V10H64V18H66V20H72V18H66V10H76V12H74V14H76V12H78V10H80V8H78V6H76V4Z" fill="white"/>
</svg>
