<svg width="26" height="26" viewBox="0 0 26 26" fill="none" xmlns="http://www.w3.org/2000/svg">
<circle cx="13" cy="13" r="13" fill="white"/>
<g clip-path="url(#clip0_6_30)">
<path d="M13.124 12.1076V14.2479H16.6629C16.5194 15.1667 15.5927 16.9389 13.124 16.9389C10.9938 16.9389 9.25599 15.1745 9.25599 12.9999C9.25599 10.8252 10.9938 9.06088 13.124 9.06088C14.3354 9.06088 15.1473 9.57802 15.6107 10.0234L17.3048 8.39242C16.2175 7.37374 14.8088 6.7591 13.1248 6.7591C9.67563 6.7591 6.88479 9.54994 6.88479 12.9991C6.88479 16.4483 9.67563 19.2391 13.1248 19.2391C16.7253 19.2391 19.116 16.7064 19.116 13.1426C19.116 12.7331 19.0723 12.4211 19.0185 12.1091L13.1248 12.1068L13.124 12.1076Z" fill="#7C7C7C"/>
</g>
<defs>
<clipPath id="clip0_6_30">
<rect width="12.48" height="12.48" fill="white" transform="translate(6.75999 6.76)"/>
</clipPath>
</defs>
</svg>
