<svg width="26" height="26" viewBox="0 0 26 26" fill="none" xmlns="http://www.w3.org/2000/svg">
<circle cx="13" cy="13" r="13" fill="white"/>
<g clip-path="url(#clip0_6_24)">
<path d="M19.24 9.51965C18.7814 9.72479 18.2868 9.86129 17.7705 9.92213C18.2993 9.60545 18.7041 9.10313 18.8968 8.50565C18.4023 8.79815 17.8532 9.01265 17.2713 9.12731C16.8033 8.62967 16.1379 8.32079 15.4016 8.32079C13.9875 8.32079 12.8424 9.46661 12.8424 10.88C12.8424 11.0796 12.8643 11.2746 12.908 11.4626C10.7801 11.355 8.89329 10.3363 7.63047 8.78645C7.41129 9.16397 7.28415 9.60545 7.28415 10.0734C7.28415 10.9611 7.73499 11.7458 8.42217 12.2036C8.00253 12.1911 7.60785 12.0741 7.26153 11.8846C7.26153 11.8947 7.26153 11.9064 7.26153 11.9166C7.26153 13.1576 8.14371 14.1934 9.31605 14.4274C9.10155 14.4859 8.87457 14.5179 8.64057 14.5179C8.47521 14.5179 8.31609 14.5007 8.15775 14.4719C8.48457 15.4882 9.42993 16.2292 10.5492 16.251C9.67173 16.9382 8.56959 17.3477 7.36839 17.3477C7.16091 17.3477 6.95889 17.3352 6.75687 17.3111C7.89255 18.0396 9.23805 18.4616 10.6834 18.4616C15.3923 18.4616 17.9694 14.5592 17.9694 11.1756C17.9694 11.0633 17.967 10.9541 17.9624 10.8441C18.4623 10.4861 18.896 10.0344 19.2392 9.52043L19.24 9.51965Z" fill="#7C7C7C"/>
</g>
<defs>
<clipPath id="clip0_6_24">
<rect width="12.48" height="12.48" fill="white" transform="translate(6.75999 6.76001)"/>
</clipPath>
</defs>
</svg>
