<svg width="26" height="26" viewBox="0 0 26 26" fill="none" xmlns="http://www.w3.org/2000/svg">
<circle cx="13" cy="13" r="13" fill="white"/>
<g clip-path="url(#clip0_6_36)">
<path d="M19.116 10.504C19.116 10.504 18.9943 9.64366 18.6191 9.26614C18.1441 8.76928 17.6121 8.76616 17.3688 8.7373C15.6239 8.61016 13.0031 8.61016 13.0031 8.61016H12.9984C12.9984 8.61016 10.3784 8.61016 8.63278 8.7373C8.38864 8.76694 7.85746 8.76928 7.38244 9.26614C7.00726 9.64366 6.88792 10.504 6.88792 10.504C6.88792 10.504 6.7639 11.5133 6.7639 12.525V13.4711C6.7639 14.4804 6.88792 15.4921 6.88792 15.4921C6.88792 15.4921 7.0096 16.3524 7.38244 16.7307C7.85746 17.2276 8.48146 17.2112 8.75992 17.2643C9.7591 17.3594 13.0039 17.3883 13.0039 17.3883C13.0039 17.3883 15.627 17.3836 17.3719 17.2588C17.616 17.2299 18.1472 17.2268 18.6222 16.73C18.9974 16.3524 19.1191 15.4913 19.1191 15.4913C19.1191 15.4913 19.2431 14.482 19.2431 13.4703V12.5242C19.2408 11.5149 19.1168 10.5032 19.1168 10.5032L19.116 10.504ZM11.7107 14.6185V11.1108L15.0818 12.8705L11.7107 14.6185Z" fill="#7C7C7C"/>
</g>
<defs>
<clipPath id="clip0_6_36">
<rect width="12.48" height="12.48" fill="white" transform="translate(6.76 6.76)"/>
</clipPath>
</defs>
</svg>
