<svg width="72" height="12" viewBox="0 0 72 12" fill="none" xmlns="http://www.w3.org/2000/svg">
<g clip-path="url(#clip0_919_375)">
<path d="M12 4.65301L7.854 4.05076L6 0.294006L4.146 4.05076L0 4.65301L3 7.57726L2.292 11.706L6 9.75676L9.708 11.706L9 7.57726L12 4.65301V4.65301Z" fill="#FFD874"/>
</g>
<g clip-path="url(#clip1_919_375)">
<path d="M27 4.65301L22.854 4.05076L21 0.294006L19.146 4.05076L15 4.65301L18 7.57726L17.292 11.706L21 9.75676L24.708 11.706L24 7.57726L27 4.65301V4.65301Z" fill="#FFD874"/>
</g>
<g clip-path="url(#clip2_919_375)">
<path d="M42 4.65301L37.854 4.05076L36 0.294006L34.146 4.05076L30 4.65301L33 7.57726L32.292 11.706L36 9.75676L39.708 11.706L39 7.57726L42 4.65301V4.65301Z" fill="#FFD874"/>
</g>
<g clip-path="url(#clip3_919_375)">
<path d="M57 4.65301L52.854 4.05076L51 0.294006L49.146 4.05076L45 4.65301L48 7.57726L47.292 11.706L51 9.75676L54.708 11.706L54 7.57726L57 4.65301V4.65301Z" fill="#FFD874"/>
</g>
<g clip-path="url(#clip4_919_375)">
<path d="M72 4.65301L67.854 4.05076L66 0.294006L64.146 4.05076L60 4.65301L63 7.57726L62.292 11.706L66 9.75676L69.708 11.706L69 7.57726L72 4.65301V4.65301Z" fill="#FFD874"/>
</g>
<defs>
<clipPath id="clip0_919_375">
<rect width="12" height="12" fill="white"/>
</clipPath>
<clipPath id="clip1_919_375">
<rect width="12" height="12" fill="white" transform="translate(15)"/>
</clipPath>
<clipPath id="clip2_919_375">
<rect width="12" height="12" fill="white" transform="translate(30)"/>
</clipPath>
<clipPath id="clip3_919_375">
<rect width="12" height="12" fill="white" transform="translate(45)"/>
</clipPath>
<clipPath id="clip4_919_375">
<rect width="12" height="12" fill="white" transform="translate(60)"/>
</clipPath>
</defs>
</svg>
